<svg width="166" height="26" viewBox="0 0 166 26" fill="none" xmlns="http://www.w3.org/2000/svg">
<path d="M0.936 25.56C0.696 25.56 0.48 25.476 0.288 25.308C0.0959999 25.116 0 24.888 0 24.624V1.296C0 1.032 0.0959999 0.816 0.288 0.648001C0.48 0.456 0.696 0.36 0.936 0.36H18.288C18.552 0.36 18.78 0.456 18.972 0.648001C19.164 0.816 19.26 1.032 19.26 1.296V5.868C19.26 6.108 19.164 6.324 18.972 6.516C18.78 6.708 18.552 6.804 18.288 6.804H7.596V10.764H17.568C17.832 10.764 18.06 10.86 18.252 11.052C18.444 11.22 18.54 11.436 18.54 11.7V16.236C18.54 16.5 18.444 16.728 18.252 16.92C18.06 17.088 17.832 17.172 17.568 17.172H7.596V24.624C7.596 24.888 7.5 25.116 7.308 25.308C7.14 25.476 6.924 25.56 6.66 25.56H0.936Z" fill="white"/>
<path d="M23.6821 25.56C23.4421 25.56 23.2261 25.476 23.0341 25.308C22.8421 25.116 22.7461 24.888 22.7461 24.624V1.296C22.7461 1.032 22.8421 0.816 23.0341 0.648001C23.2261 0.456 23.4421 0.36 23.6821 0.36H29.6581C29.9221 0.36 30.1501 0.456 30.3421 0.648001C30.5341 0.816 30.6301 1.032 30.6301 1.296V19.152H41.0341C41.2981 19.152 41.5261 19.248 41.7181 19.44C41.9101 19.608 42.0061 19.824 42.0061 20.088V24.624C42.0061 24.888 41.9101 25.116 41.7181 25.308C41.5261 25.476 41.2981 25.56 41.0341 25.56H23.6821Z" fill="white"/>
<path d="M72.1626 25.56C71.9226 25.56 71.7066 25.476 71.5146 25.308C71.3226 25.116 71.2266 24.888 71.2266 24.624V1.296C71.2266 1.032 71.3226 0.816 71.5146 0.648001C71.7066 0.456 71.9226 0.36 72.1626 0.36H76.9506C77.3826 0.36 77.6946 0.468 77.8866 0.684C78.0786 0.876 78.2106 1.02 78.2826 1.116L85.6986 13.032V1.296C85.6986 1.032 85.7946 0.816 85.9866 0.648001C86.1786 0.456 86.3946 0.36 86.6346 0.36H92.0706C92.3346 0.36 92.5506 0.456 92.7186 0.648001C92.9106 0.816 93.0066 1.032 93.0066 1.296V24.624C93.0066 24.888 92.9106 25.116 92.7186 25.308C92.5506 25.476 92.3346 25.56 92.0706 25.56H87.3186C86.8626 25.56 86.5386 25.464 86.3466 25.272C86.1546 25.056 86.0226 24.9 85.9506 24.804L78.5346 13.572V24.624C78.5346 24.888 78.4386 25.116 78.2466 25.308C78.0786 25.476 77.8626 25.56 77.5986 25.56H72.1626Z" fill="white"/>
<path d="M98.4594 25.56C98.2194 25.56 98.0034 25.476 97.8114 25.308C97.6194 25.116 97.5234 24.888 97.5234 24.624V1.296C97.5234 1.032 97.6194 0.816 97.8114 0.648001C98.0034 0.456 98.2194 0.36 98.4594 0.36H116.099C116.363 0.36 116.591 0.456 116.783 0.648001C116.975 0.816 117.071 1.032 117.071 1.296V5.544C117.071 5.784 116.975 6 116.783 6.192C116.591 6.384 116.363 6.48 116.099 6.48H104.975V10.044H115.307C115.571 10.044 115.799 10.14 115.991 10.332C116.183 10.5 116.279 10.716 116.279 10.98V14.868C116.279 15.132 116.183 15.36 115.991 15.552C115.799 15.72 115.571 15.804 115.307 15.804H104.975V19.44H116.387C116.651 19.44 116.879 19.536 117.071 19.728C117.263 19.92 117.359 20.148 117.359 20.412V24.624C117.359 24.888 117.263 25.116 117.071 25.308C116.879 25.476 116.651 25.56 116.387 25.56H98.4594Z" fill="white"/>
<path d="M127.559 25.56C127.295 25.56 127.067 25.476 126.875 25.308C126.707 25.116 126.623 24.888 126.623 24.624V7.056H120.431C120.167 7.056 119.939 6.972 119.747 6.804C119.579 6.612 119.495 6.384 119.495 6.12V1.296C119.495 1.032 119.579 0.816 119.747 0.648001C119.939 0.456 120.167 0.36 120.431 0.36H140.663C140.927 0.36 141.143 0.456 141.311 0.648001C141.503 0.816 141.599 1.032 141.599 1.296V6.12C141.599 6.384 141.503 6.612 141.311 6.804C141.143 6.972 140.927 7.056 140.663 7.056H134.471V24.624C134.471 24.888 134.375 25.116 134.183 25.308C134.015 25.476 133.799 25.56 133.535 25.56H127.559Z" fill="white"/>
<path d="M154.464 25.92C151.944 25.92 149.844 25.572 148.164 24.876C146.508 24.156 145.26 23.232 144.42 22.104C143.604 20.952 143.172 19.74 143.124 18.468C143.124 18.252 143.196 18.072 143.34 17.928C143.484 17.784 143.664 17.712 143.88 17.712H149.604C149.94 17.712 150.204 17.772 150.396 17.892C150.588 17.988 150.792 18.132 151.008 18.324C151.224 18.588 151.476 18.84 151.764 19.08C152.052 19.296 152.424 19.476 152.88 19.62C153.336 19.74 153.864 19.8 154.464 19.8C155.568 19.8 156.42 19.656 157.02 19.368C157.62 19.056 157.92 18.636 157.92 18.108C157.92 17.7 157.752 17.364 157.416 17.1C157.104 16.836 156.564 16.596 155.796 16.38C155.028 16.164 153.984 15.936 152.664 15.696C150.816 15.384 149.22 14.928 147.876 14.328C146.532 13.704 145.5 12.876 144.78 11.844C144.084 10.788 143.736 9.492 143.736 7.956C143.736 6.396 144.168 5.016 145.032 3.816C145.92 2.616 147.144 1.68 148.704 1.008C150.288 0.335999 152.124 0 154.212 0C155.94 0 157.464 0.228 158.784 0.684C160.128 1.14 161.256 1.74 162.168 2.484C163.08 3.204 163.776 3.984 164.256 4.824C164.736 5.664 164.988 6.468 165.012 7.236C165.012 7.452 164.928 7.644 164.76 7.812C164.616 7.956 164.448 8.028 164.256 8.028H158.244C157.956 8.028 157.704 7.98 157.488 7.884C157.296 7.788 157.116 7.632 156.948 7.416C156.828 7.08 156.528 6.78 156.048 6.516C155.568 6.252 154.956 6.12 154.212 6.12C153.396 6.12 152.772 6.264 152.34 6.552C151.908 6.816 151.692 7.212 151.692 7.74C151.692 8.1 151.824 8.412 152.088 8.676C152.352 8.94 152.82 9.18 153.492 9.396C154.164 9.588 155.1 9.804 156.3 10.044C158.58 10.38 160.416 10.86 161.808 11.484C163.224 12.108 164.256 12.924 164.904 13.932C165.552 14.94 165.876 16.2 165.876 17.712C165.876 19.416 165.384 20.88 164.4 22.104C163.416 23.328 162.06 24.276 160.332 24.948C158.628 25.596 156.672 25.92 154.464 25.92Z" fill="white"/>
<path fill-rule="evenodd" clip-rule="evenodd" d="M42.8819 25.344C43.0499 25.488 43.2419 25.56 43.4579 25.56H49.0019C49.4339 25.56 49.7339 25.464 49.9019 25.272C50.0939 25.08 50.2259 24.9 50.2979 24.732L51.4139 21.708L53.0699 15.624L55.7339 7.524L58.4339 15.624L60.0899 21.708L61.2059 24.732C61.2779 24.9 61.4099 25.08 61.6019 25.272C61.7939 25.464 62.0939 25.56 62.5019 25.56H68.0459C68.2619 25.56 68.4419 25.488 68.5859 25.344C68.7539 25.176 68.8379 24.984 68.8379 24.768C68.8379 24.672 68.8259 24.588 68.8019 24.516L60.5579 1.476C60.4859 1.212 60.3299 0.960001 60.0899 0.719999C59.8499 0.48 59.5019 0.36 59.0459 0.36H52.4579C52.0259 0.36 51.6779 0.48 51.4139 0.719999C51.1739 0.960001 51.0179 1.212 50.9459 1.476L42.7379 24.516C42.6899 24.588 42.6659 24.672 42.6659 24.768C42.6659 24.984 42.7379 25.176 42.8819 25.344Z" fill="white"/>
</svg>
