<svg width="150" height="150" viewBox="0 0 150 150" fill="none" xmlns="http://www.w3.org/2000/svg">
<path d="M50 93.7684L50 126C50 126 70.0189 123.935 80.5024 119.554C90.9748 115.177 144.694 74.4294 144.694 74.4294C110.667 68.0774 50 93.7684 50 93.7684Z" fill="#7E7DC8" stroke="#2E175F" stroke-width="4" stroke-linejoin="round"/>
<path d="M50 55.0835C50 55.0835 115.105 81.4359 144.694 75.4031C144.694 75.4031 90.5123 33.2151 80.5023 29.4167C69.8441 25.3724 50 23 50 23L50 55.0835Z" fill="#7E7DC8" stroke="#2E175F" stroke-width="4" stroke-linejoin="round"/>
<path d="M59.9677 57.5041L59.9677 91.0841C59.9677 91.0841 66.8099 94.6563 79.4954 99.6541C90.5065 103.992 103.498 103.544 113.61 99.6541C131.829 92.6453 147.185 73.6694 147.185 73.6694C147.185 73.6694 131.829 55.9429 113.61 48.9342C102.431 44.6338 91.1463 43.8977 79.4954 48.9342C68.4645 53.7027 59.9677 57.5041 59.9677 57.5041Z" fill="#AAA2FF" stroke="#2E175F" stroke-width="4" stroke-linejoin="round"/>
<circle cx="116.452" cy="74.5" r="6.30645" fill="#7E7DC8" stroke="#2E175F" stroke-width="4" stroke-linejoin="round"/>
</svg>
